<?xml version="1.0" encoding="UTF-8" ?>
<!DOCTYPE svg PUBLIC "-//W3C//DTD SVG 1.1//EN" "http://www.w3.org/Graphics/SVG/1.1/DTD/svg11.dtd">
<svg width="512pt" height="331pt" viewBox="0 0 512 331" version="1.1" xmlns="http://www.w3.org/2000/svg">
<g id="#ffd004ff">
<path fill="#ffd004" opacity="1.00" d=" M 136.46 5.76 C 141.89 4.46 147.89 5.23 152.56 8.39 C 158.48 12.11 161.86 19.10 161.67 26.02 C 161.66 79.02 161.68 132.02 161.66 185.02 C 161.79 192.62 157.36 200.12 150.45 203.38 C 141.84 207.80 130.24 204.87 124.97 196.69 C 122.33 193.04 121.44 188.46 121.45 184.03 C 121.48 131.06 121.41 78.08 121.48 25.10 C 121.43 16.24 127.84 7.87 136.46 5.76 Z" />
<path fill="#ffd004" opacity="1.00" d=" M 9.45 60.94 C 11.22 51.58 20.58 44.38 30.10 45.22 C 40.35 45.38 49.19 54.76 49.10 64.94 C 49.09 91.60 49.08 118.26 49.10 144.92 C 49.27 151.48 46.00 158.04 40.59 161.78 C 34.83 165.94 26.78 166.62 20.40 163.50 C 13.79 160.42 8.98 153.39 9.12 146.02 C 9.10 129.67 9.02 113.33 9.05 97.00 C 9.23 89.67 9.08 82.33 9.06 75.00 C 9.30 70.32 8.71 65.59 9.45 60.94 Z" />
<path fill="#ffd004" opacity="1.00" d=" M 192.52 45.82 C 197.51 44.64 203.03 45.02 207.51 47.66 C 214.41 51.29 218.61 59.30 217.76 67.05 C 217.21 77.74 206.75 86.56 196.11 85.29 C 185.94 84.74 177.33 75.22 177.85 65.04 C 177.55 56.25 184.14 48.07 192.52 45.82 Z" />
<path fill="#ffd004" opacity="1.00" d=" M 249.43 65.69 C 258.92 63.15 269.66 68.93 272.88 78.19 C 274.66 82.58 274.12 87.38 274.17 92.00 C 274.18 102.99 274.16 113.98 274.19 124.97 C 274.29 132.19 270.32 139.41 263.94 142.87 C 257.73 146.43 249.61 146.28 243.56 142.46 C 237.60 138.89 233.79 131.96 234.10 125.00 C 234.15 111.33 234.09 97.65 234.13 83.98 C 234.36 75.36 241.07 67.56 249.43 65.69 Z" />
<path fill="#ffd004" opacity="1.00" d=" M 81.47 105.55 C 93.15 102.81 105.71 112.90 105.24 124.96 C 105.94 135.90 95.95 145.90 85.04 145.42 C 74.66 145.60 65.34 136.34 65.25 125.99 C 64.67 116.40 72.02 107.19 81.47 105.55 Z" />
</g>
<g id="#55595aff">
<path fill="#55595a" opacity="1.00" d=" M 422.36 127.36 C 428.03 123.86 435.49 123.50 441.45 126.48 C 448.04 129.58 452.69 136.57 452.72 143.89 C 452.80 150.76 452.71 157.62 452.74 164.48 C 461.10 164.56 469.47 164.39 477.82 164.55 C 487.41 165.12 495.13 174.61 493.98 184.10 C 493.36 192.70 485.84 200.05 477.22 200.41 C 469.06 200.66 460.90 200.43 452.74 200.52 C 452.75 226.67 452.74 252.82 452.75 278.98 C 452.41 283.17 455.90 286.89 460.02 287.21 C 463.92 286.87 466.93 284.08 469.17 281.09 C 472.46 276.76 477.39 273.34 482.98 273.20 C 489.07 272.56 494.81 275.94 498.64 280.44 C 502.71 285.29 503.14 292.35 501.32 298.20 C 493.57 317.87 470.77 329.81 450.14 325.41 C 429.66 321.86 413.12 302.82 412.83 281.97 C 412.81 254.82 412.81 227.67 412.83 200.51 C 408.23 200.47 403.36 200.91 399.10 198.83 C 392.38 195.82 388.00 188.40 388.74 181.05 C 389.06 174.15 393.96 167.86 400.40 165.53 C 404.37 164.00 408.69 164.59 412.85 164.48 C 412.80 157.67 412.82 150.85 412.81 144.04 C 412.65 137.27 416.60 130.78 422.36 127.36 Z" />
<path fill="#55595a" opacity="1.00" d=" M 247.35 165.51 C 253.23 163.58 260.06 164.24 265.20 167.80 C 270.76 171.45 274.19 178.06 273.97 184.71 C 278.73 178.56 284.51 173.03 291.65 169.76 C 304.67 163.77 319.77 163.10 333.62 166.27 C 347.30 169.48 358.92 179.13 365.64 191.32 C 371.06 200.92 373.46 212.05 373.33 223.02 C 373.31 250.00 373.33 276.98 373.33 303.96 C 373.40 309.81 371.01 315.70 366.56 319.56 C 360.70 325.03 351.44 326.21 344.31 322.63 C 337.68 319.49 333.18 312.37 333.20 305.03 C 333.19 280.02 333.18 255.00 333.20 229.98 C 333.17 223.96 331.44 217.90 327.99 212.93 C 322.38 204.53 312.17 199.40 302.05 200.14 C 287.49 200.44 274.48 213.36 274.19 227.94 C 274.15 252.95 274.17 277.96 274.18 302.97 C 274.21 307.65 273.12 312.47 270.33 316.31 C 265.89 322.66 257.55 325.92 249.98 324.27 C 243.06 322.97 237.10 317.64 234.99 310.94 C 233.45 306.46 233.86 301.66 233.82 297.02 C 233.82 261.67 233.83 226.33 233.82 190.99 C 233.82 186.69 233.55 182.25 234.98 178.12 C 236.84 172.29 241.58 167.52 247.35 165.51 Z" />
</g>
</svg>
